<svg viewBox="-48.65 300 507.58 150" xmlns="http://www.w3.org/2000/svg">
  <title>Bowl</title>
  <defs>
    <style>.cls-1{fill:currentColor;}</style>
  </defs>
  <path class="cls-1" d="M0,302.44C0,415.55,92,507.58,205.14,507.58A205,205,0,0,0,410.28,302.44a8.51,8.51,0,0,0-8.5-8.5H8.5A8.51,8.51,0,0,0,0,302.44Zm393.09,8.5a188.49,188.49,0,0,1-5.57,37.8H22.78a186.85,186.85,0,0,1-5.59-37.8Zm-368.4,44.8H385.6A188.14,188.14,0,0,1,205.14,490.58C119.9,490.58,47.73,433.6,24.69,355.74Z"/>
  <path class="cls-1" d="M264.28,452.88a137.9,137.9,0,0,0,49.87-36.62,3.5,3.5,0,0,1,5.31,4.57A145.2,145.2,0,0,1,267,459.32a3.55,3.55,0,0,1-1.38.28,3.5,3.5,0,0,1-1.38-6.72Z"/>
</svg>